<?xml version="1.0" standalone="no"?>
<!DOCTYPE svg PUBLIC "-//W3C//DTD SVG 20010904//EN"
 "http://www.w3.org/TR/2001/REC-SVG-20010904/DTD/svg10.dtd">
<svg version="1.0" xmlns="http://www.w3.org/2000/svg"
 width="300.000000pt" height="200.000000pt" viewBox="0 0 300.000000 200.000000"
 preserveAspectRatio="xMidYMid meet">
<metadata>
Created by potrace 1.10, written by Peter Selinger 2001-2011
</metadata>
<g transform="translate(0.000000,200.000000) scale(0.100000,-0.100000)"
fill="#000000" stroke="none">
<path d="M1303 1783 c-16 -6 -17 -53 -2 -53 6 0 8 7 5 16 -3 9 -3 21 1 27 4 7
9 3 14 -9 6 -16 8 -16 8 -2 1 20 -9 27 -26 21z"/>
<path d="M1405 1760 c-3 -6 1 -7 9 -4 11 4 16 0 16 -15 0 -12 -6 -21 -15 -21
-8 0 -15 -7 -15 -16 0 -9 -9 -18 -20 -21 -22 -6 -28 -23 -7 -23 6 0 28 10 47
22 54 34 81 48 75 38 -3 -5 -1 -12 5 -15 6 -4 8 -16 4 -27 -6 -21 -6 -21 17 1
l23 21 21 -20 c12 -11 26 -20 33 -20 9 0 10 -40 2 -80 0 -3 -10 12 -21 33 -23
44 -38 44 -16 0 8 -15 12 -34 9 -42 -3 -10 0 -12 11 -8 13 5 16 1 14 -16 -1
-17 3 -21 17 -19 17 3 18 2 7 -12 -8 -9 -9 -16 -3 -16 5 0 15 6 21 14 6 8 26
16 44 19 18 3 42 8 55 12 19 6 22 4 22 -19 0 -14 5 -26 11 -26 7 0 9 9 6 22
-8 28 10 110 26 120 22 14 28 8 13 -15 -10 -14 -12 -27 -6 -36 6 -11 11 -6 17
20 7 27 14 34 34 34 13 0 26 3 29 7 3 4 12 3 20 -2 13 -8 12 -10 -2 -10 -10 0
-18 -4 -18 -10 0 -5 11 -10 25 -10 14 0 25 -4 25 -10 0 -5 -9 -10 -21 -10 -11
0 -29 -5 -40 -10 -15 -9 -19 -7 -19 5 0 9 -4 14 -9 11 -5 -3 -7 -15 -4 -26 4
-16 8 -18 20 -9 11 9 17 8 28 -7 8 -10 12 -25 10 -33 -4 -9 0 -11 10 -7 20 7
19 -4 -2 -20 -24 -16 -49 1 -32 22 9 11 8 14 -6 14 -13 0 -16 -5 -11 -22 3
-13 6 -26 6 -30 0 -9 41 -23 58 -19 13 2 28 -26 19 -35 -3 -3 -16 0 -29 7
l-23 12 20 -22 20 -23 22 29 23 28 -33 8 c-42 11 -44 15 -22 31 18 13 18 15 1
41 -10 15 -13 24 -7 21 6 -4 11 -3 11 3 0 5 -6 12 -12 15 -7 3 -2 4 12 3 18
-1 26 -9 28 -27 2 -14 8 -29 14 -35 8 -7 9 -4 4 10 -10 28 8 8 28 -29 11 -22
12 -33 4 -43 -18 -22 -3 -25 17 -3 17 19 17 21 1 39 -10 11 -19 36 -20 56 -4
48 -25 71 -27 30 -2 -26 -2 -27 -6 -6 -3 13 -13 33 -24 44 -12 13 -17 28 -13
40 5 16 3 19 -10 14 -9 -4 -16 -2 -16 4 0 6 -6 9 -12 6 -7 -2 -30 2 -52 9 -41
15 -76 7 -37 -8 l23 -8 -26 -21 c-14 -11 -30 -35 -35 -52 l-8 -32 -11 25 c-5
14 -7 29 -4 35 14 24 8 45 -13 45 -35 0 -35 -9 -4 -61 16 -28 29 -51 29 -53 0
-2 -11 -3 -24 -3 -18 0 -26 6 -28 21 -4 25 -33 33 -42 11 -4 -13 -1 -15 14
-10 14 4 20 2 20 -9 0 -16 -23 -32 -55 -37 -18 -4 -20 1 -20 48 0 28 3 49 8
46 4 -2 7 -12 7 -21 1 -15 2 -15 11 1 6 10 15 14 22 10 9 -5 8 -2 0 9 -7 8
-10 18 -7 21 10 10 -34 64 -69 85 -39 24 -112 38 -122 23 -4 -8 -12 -8 -25 -1
-24 13 -37 13 -45 0z m173 -32 c15 -15 15 -28 1 -28 -15 0 -39 26 -32 34 9 9
18 7 31 -6z"/>
<path d="M1270 1708 c0 -9 7 -23 15 -31 12 -13 13 -17 0 -27 -8 -6 -19 -9 -24
-6 -5 4 -12 2 -16 -4 -3 -5 1 -10 9 -10 12 0 15 -8 11 -35 -2 -20 -7 -40 -10
-45 -3 -5 -1 -29 6 -52 7 -28 8 -43 1 -46 -6 -2 -8 -18 -5 -38 5 -31 4 -34
-21 -34 -23 0 -31 -9 -27 -32 0 -5 -6 -8 -14 -8 -25 0 -17 -27 10 -32 25 -5
51 13 38 25 -7 8 26 47 40 47 5 0 6 -12 3 -27 -7 -27 -6 -27 13 5 12 17 28 32
38 32 15 0 15 -1 -1 -13 -11 -8 -19 -28 -20 -55 -2 -43 -16 -72 -16 -34 0 23
-4 25 -32 14 -14 -6 -10 -12 22 -39 31 -26 39 -30 44 -17 4 9 2 13 -5 8 -7 -4
-10 -1 -7 7 3 8 16 13 29 12 l24 -3 -22 10 c-13 5 -23 15 -23 22 0 10 2 10 8
1 5 -7 13 -9 21 -4 11 7 9 11 -8 20 -11 7 -21 20 -21 31 0 16 5 18 35 13 36
-6 50 12 19 24 -8 3 -20 17 -25 30 -7 20 -12 22 -29 13 -11 -6 -20 -17 -20
-25 0 -24 -20 -17 -30 11 -13 34 -14 32 16 36 27 3 54 31 42 43 -3 4 -15 1
-27 -6 -11 -7 -23 -11 -26 -7 -6 5 -9 41 -6 68 1 13 2 13 11 0 5 -8 12 -12 15
-8 4 3 0 16 -7 27 -17 28 1 56 36 56 15 -1 26 5 26 12 0 16 -32 17 -48 1 -9
-9 -12 -9 -12 1 0 8 8 20 18 28 9 8 12 12 5 9 -6 -3 -21 6 -32 21 -15 21 -20
24 -21 11z"/>
<path d="M1386 1624 c-5 -19 -11 -24 -26 -19 -16 5 -19 3 -13 -12 3 -10 13
-26 20 -35 13 -15 11 -18 -26 -29 -23 -7 -41 -16 -41 -21 0 -10 40 -1 55 13
16 15 25 10 25 -15 0 -14 5 -28 12 -32 7 -4 8 -3 4 4 -4 7 -1 12 8 12 9 0 16
-5 16 -11 0 -5 5 -7 10 -4 6 4 17 1 25 -5 8 -7 30 -12 50 -13 20 -1 35 -6 35
-13 0 -15 -73 -13 -92 4 -10 7 -24 8 -44 3 -16 -5 -22 -10 -14 -11 11 -1 9 -4
-5 -10 -14 -7 -9 -8 18 -4 34 6 37 4 37 -17 0 -13 -3 -34 -6 -47 -6 -19 -11
-22 -39 -16 -21 4 -35 1 -40 -7 -6 -9 -2 -11 13 -7 12 4 20 2 16 -3 -3 -5 4
-9 15 -9 12 0 21 -5 21 -10 0 -7 6 -8 17 -1 12 6 26 5 46 -6 16 -8 48 -14 71
-12 69 4 103 -9 117 -45 14 -35 36 -55 59 -56 8 0 4 6 -9 13 -38 19 -39 38 -2
27 39 -11 53 -19 46 -30 -5 -9 35 -64 42 -56 3 2 -3 16 -12 30 -10 14 -14 26
-10 26 4 0 -3 8 -15 18 -14 11 -20 25 -17 37 4 18 5 18 12 -3 4 -13 11 -20 14
-14 9 13 64 26 56 13 -3 -6 3 -21 14 -33 l21 -22 0 22 c0 11 -4 24 -10 27 -5
3 -10 15 -10 25 0 13 -14 26 -40 39 -22 11 -37 15 -34 10 3 -5 -8 -25 -25 -45
-36 -40 -40 -34 -11 16 l21 35 -26 -30 c-14 -16 -25 -33 -25 -37 0 -5 -7 -8
-15 -8 -25 0 -17 20 20 53 19 17 35 36 35 42 0 6 9 17 20 25 14 10 16 16 7 22
-16 11 18 38 47 38 18 0 16 3 -9 19 -21 13 -34 15 -43 8 -10 -8 -14 -5 -18 11
-4 12 -11 19 -20 15 -9 -3 -14 2 -14 16 0 15 -6 21 -21 21 -13 0 -20 -6 -18
-17 3 -34 -1 -54 -10 -49 -5 3 -12 -6 -16 -21 -4 -19 -9 -23 -14 -14 -6 10
-10 9 -14 -3 -4 -9 -14 -16 -24 -16 -17 -1 -17 -1 0 -15 26 -19 18 -51 -13
-47 -39 4 -43 18 -25 105 6 31 11 37 34 37 24 1 25 2 8 14 -10 8 -18 17 -18
20 1 3 -2 5 -6 4 -5 -2 -7 -7 -5 -13 9 -26 -88 -50 -103 -25 -4 6 -10 8 -15 5
-4 -3 -11 2 -14 11 -3 9 -12 14 -19 11 -23 -9 -42 51 -30 95 6 21 7 41 3 43
-4 3 -11 -7 -14 -21z m337 -200 c-3 -9 1 -14 11 -14 13 0 15 4 6 19 -14 28
-13 33 8 23 9 -5 23 -7 30 -5 20 7 14 -10 -13 -36 -14 -12 -22 -27 -19 -32 10
-17 -35 -65 -72 -77 -28 -8 -42 -8 -58 1 -20 11 -20 12 7 15 25 3 40 22 16 22
-6 0 -9 7 -6 15 4 8 2 17 -3 20 -21 13 -9 22 24 20 32 -3 35 -1 41 32 5 28 9
32 20 23 8 -6 11 -18 8 -26z m-187 -25 c0 -12 -13 -31 -28 -42 -22 -17 -30
-18 -43 -7 -8 7 -15 24 -15 37 0 23 3 25 33 19 23 -4 28 -3 17 4 -12 8 -10 10
11 10 21 0 26 -5 25 -21z m2 -70 c34 -12 34 -29 1 -29 -28 0 -61 19 -54 31 8
12 15 11 53 -2z m282 -39 c18 -11 14 -15 -23 -24 -26 -6 -27 -5 -17 14 12 22
18 24 40 10z"/>
<path d="M1691 1359 c-18 -11 -31 -22 -29 -25 6 -5 66 24 73 37 10 15 -8 10
-44 -12z"/>
<path d="M1483 1632 c-13 -8 -7 -52 7 -52 9 0 20 25 20 46 0 16 -9 18 -27 6z"/>
<path d="M1789 1569 c-2 -27 3 -54 13 -66 7 -9 6 -13 -3 -13 -16 -1 25 -24 61
-35 19 -6 15 0 -16 23 -32 24 -41 36 -42 62 -1 33 -11 55 -13 29z"/>
<path d="M1084 1470 c-23 -16 -44 -35 -47 -42 -9 -25 37 -132 63 -145 14 -7
19 -13 11 -13 -10 0 -12 -9 -8 -35 5 -28 0 -44 -19 -72 l-24 -36 22 -24 c24
-26 54 -29 82 -8 33 25 46 2 39 -66 -4 -41 -1 -71 10 -101 8 -24 18 -69 21
-101 3 -31 13 -75 22 -96 13 -33 14 -56 6 -144 -6 -59 -13 -111 -16 -116 -4
-5 -32 -24 -64 -42 -31 -18 -83 -50 -115 -70 -32 -21 -88 -48 -125 -59 -182
-60 -251 -115 -292 -235 -24 -71 -25 -67 3 -63 15 2 21 9 19 22 -8 43 82 177
108 161 6 -4 9 -1 8 6 -3 11 77 51 147 75 11 3 22 7 25 8 42 19 65 26 81 26
10 0 19 7 19 15 0 8 5 15 10 15 12 0 142 89 152 103 4 6 13 4 23 -6 9 -10 20
-15 24 -13 4 3 8 44 9 92 3 100 16 120 45 74 11 -17 23 -30 27 -30 5 0 14 -16
21 -34 13 -36 31 -41 22 -6 -6 24 -6 24 45 6 22 -8 51 -12 64 -8 l23 6 -25 7
-25 7 26 1 c28 1 68 26 57 36 -3 4 -15 2 -26 -4 -29 -15 -97 -14 -135 3 -45
20 -108 82 -101 99 3 8 -4 54 -15 102 -12 47 -21 99 -21 113 0 15 -7 40 -15
56 -8 15 -16 38 -16 50 -1 16 -3 14 -10 -9 -5 -20 -6 -11 -3 30 3 33 10 67 15
75 6 10 7 -1 4 -30 -3 -25 -3 -38 1 -30 3 8 9 24 14 35 5 11 13 41 19 68 10
39 9 52 -4 75 l-16 27 6 -28 c3 -17 2 -26 -4 -23 -5 3 -12 -1 -15 -10 -4 -12
-2 -15 9 -10 8 3 15 2 15 -3 0 -5 -10 -12 -22 -15 -22 -7 -22 -7 -3 -16 19 -8
19 -9 -2 -9 -21 -1 -23 4 -24 52 -1 53 -3 53 -13 5 -3 -15 -20 -36 -36 -48
l-30 -21 10 28 10 28 -20 -23 -19 -23 -7 26 c-8 34 20 70 36 45 9 -13 11 -13
20 0 9 13 11 13 21 0 9 -13 10 -13 6 1 -3 9 5 37 17 61 20 39 21 45 6 41 -9
-3 -16 -14 -16 -26 1 -14 -4 -21 -13 -19 -8 2 -11 -3 -8 -13 4 -8 1 -15 -5
-15 -7 0 -9 13 -5 36 5 32 2 40 -21 58 -15 11 -30 20 -34 19 -5 -2 -7 0 -5 5
1 4 -9 18 -22 31 -15 15 -20 26 -13 29 6 2 9 9 6 16 -3 8 2 16 10 19 9 4 16 2
16 -3 0 -6 -4 -10 -9 -10 -6 0 -8 -10 -6 -21 6 -32 15 -36 15 -8 0 33 15 56
23 35 3 -8 1 -17 -6 -20 -9 -3 -8 -8 3 -15 10 -7 11 -11 3 -11 -7 0 -13 -4
-13 -10 0 -5 7 -6 17 -3 10 4 14 2 10 -4 -3 -5 0 -10 8 -10 17 0 20 34 5 72
-5 14 -11 39 -12 55 -1 17 -5 30 -8 30 -3 -1 -24 -14 -46 -30z m66 -215 c0
-24 -5 -35 -15 -35 -17 0 -21 25 -5 35 5 3 7 12 3 20 -3 8 0 15 6 15 6 0 11
-16 11 -35z"/>
<path d="M1855 1430 c-3 -5 3 -10 14 -10 14 0 21 -6 21 -20 0 -11 5 -20 10
-20 13 0 13 16 0 41 -11 20 -35 25 -45 9z"/>
<path d="M1976 1426 c3 -8 -7 -26 -23 -40 -20 -19 -24 -29 -16 -37 8 -8 13 -8
17 0 4 6 2 11 -4 11 -6 0 -8 5 -5 10 12 20 27 -3 21 -32 -3 -17 -2 -27 4 -23
5 3 13 -3 19 -12 16 -30 22 -8 6 23 -11 22 -12 30 -2 34 18 7 20 31 6 57 -13
25 -32 32 -23 9z"/>
<path d="M1793 1366 l-28 -24 30 5 c23 3 27 2 15 -6 -12 -9 -11 -11 8 -11 26
0 27 3 5 26 -16 16 -16 16 5 10 16 -6 22 -3 22 8 0 23 -25 20 -57 -8z"/>
<path d="M1911 1343 c-1 -13 3 -23 8 -23 5 0 14 -13 20 -29 7 -15 23 -34 36
-41 27 -15 24 -30 -6 -30 -13 0 -18 -4 -13 -12 5 -8 0 -9 -14 -6 -14 4 -20 2
-16 -4 4 -6 1 -9 -7 -6 -8 3 -15 10 -15 16 -3 25 -5 26 -15 9 -5 -9 -7 -22 -3
-29 5 -7 2 -9 -8 -6 -13 5 -12 0 4 -33 10 -22 23 -37 28 -34 6 4 10 8 10 11 0
3 -5 2 -11 -2 -8 -4 -9 1 -4 17 5 19 4 21 -4 9 -13 -19 -14 0 -1 20 8 13 11
11 16 -7 4 -13 10 -20 15 -17 14 8 11 -9 -6 -33 -10 -15 -12 -24 -4 -28 6 -4
8 -13 5 -21 -3 -8 -1 -14 4 -14 6 0 10 14 10 30 0 17 5 30 11 30 11 0 2 -61
-11 -70 -4 -3 -8 -32 -9 -64 -1 -33 -6 -65 -12 -72 -6 -7 -14 -25 -19 -41 l-8
-28 -1 32 c-1 17 3 35 9 38 5 3 7 31 4 63 -3 31 -5 71 -5 87 1 22 -5 33 -21
40 -16 7 -26 24 -34 54 -6 25 -17 47 -25 50 -11 3 -12 2 -1 -11 7 -9 10 -22 7
-29 -3 -8 8 -40 24 -71 28 -55 28 -58 15 -109 -8 -28 -20 -61 -28 -73 -7 -12
-16 -35 -20 -52 -4 -16 -22 -56 -41 -87 -19 -32 -38 -69 -41 -83 -4 -14 -13
-28 -20 -31 -8 -3 -14 -11 -14 -17 0 -7 -13 -22 -30 -34 -16 -13 -30 -30 -30
-39 0 -11 5 -9 20 9 11 14 28 28 38 30 15 4 18 -2 20 -39 1 -24 6 -52 12 -62
5 -11 7 -39 4 -63 -6 -44 17 -111 30 -89 4 6 2 19 -4 30 -5 11 -10 42 -10 70
0 56 7 60 53 36 15 -8 25 -10 22 -5 -9 15 1 12 72 -21 36 -17 78 -33 92 -36
14 -2 28 -9 32 -14 3 -6 8 -10 10 -8 8 4 49 -13 49 -21 0 -5 13 -11 30 -15 16
-3 40 -15 54 -26 14 -11 35 -21 47 -22 12 -1 24 -9 27 -19 2 -10 9 -15 14 -12
13 9 85 -73 93 -105 4 -14 14 -36 24 -50 10 -14 21 -48 24 -75 7 -55 9 -59 30
-54 12 3 12 12 1 67 -18 84 -55 160 -104 209 -44 44 -252 155 -368 196 -40 14
-105 33 -144 42 l-71 16 6 62 c3 33 12 77 20 96 8 19 17 43 20 53 6 15 10 16
26 5 26 -16 53 8 87 74 13 26 28 49 32 52 5 3 19 -17 32 -44 22 -47 24 -49 42
-33 10 9 18 22 18 30 0 7 5 13 10 13 6 0 8 12 5 28 -4 20 -3 22 3 8 8 -19 9
-18 25 5 9 13 17 32 17 42 0 14 -4 16 -19 7 -27 -14 -38 6 -17 29 9 10 16 24
16 32 0 8 -6 5 -16 -9 -8 -12 -21 -22 -28 -22 -7 0 -23 -12 -37 -27 -17 -18
-19 -24 -7 -20 13 5 17 -3 20 -44 3 -51 -6 -65 -18 -27 -3 12 -15 29 -25 37
-13 11 -16 24 -12 44 3 15 10 27 15 27 5 0 6 -5 2 -12 -4 -6 13 3 38 20 25 17
48 39 52 48 5 14 9 13 26 -7 16 -20 19 -21 20 -6 0 9 -9 26 -20 37 -23 23 -30
25 -30 8 -1 -22 -36 -57 -64 -64 -32 -8 -33 2 -5 32 12 13 22 33 23 46 1 17 7
23 24 22 l22 -1 -22 24 c-25 27 -29 29 -22 8 11 -27 -12 -16 -26 13 -8 15 -21
35 -29 45 -8 9 -12 19 -9 22 8 8 38 -6 33 -15 -3 -5 0 -12 6 -16 8 -4 9 -3 5
4 -4 7 -2 12 5 12 8 0 8 4 -1 15 -15 18 -7 30 15 22 8 -4 15 -18 15 -32 0 -16
6 -25 16 -25 14 0 14 3 4 15 -7 9 -10 19 -6 22 4 4 18 -6 31 -22 27 -35 34
-31 42 20 6 36 5 37 -15 24 -19 -12 -23 -11 -36 6 -8 11 -12 23 -10 27 3 5 -1
8 -9 8 -8 0 -17 7 -21 15 -3 8 -11 14 -18 13 -7 -2 -12 2 -11 8 1 6 -9 17 -21
24 -13 7 -29 22 -34 34 l-11 21 0 -22z m-31 -471 c0 -35 -14 -57 -30 -47 -7 4
-16 2 -21 -6 -7 -11 -9 -11 -9 3 0 9 5 20 10 23 6 3 10 13 10 21 0 18 22 44
33 37 4 -2 7 -16 7 -31z m-34 -87 c-8 -30 -36 -34 -36 -5 0 11 7 20 15 20 8 0
15 5 15 12 0 6 3 9 6 5 4 -3 4 -18 0 -32z"/>
<path d="M1880 1334 c0 -13 21 -42 34 -47 12 -5 11 0 -2 24 -15 26 -32 38 -32
23z"/>
<path d="M1333 1207 c-41 -22 -54 -37 -31 -37 6 0 20 7 30 17 20 18 92 20 113
3 9 -8 14 -6 18 5 8 18 -22 35 -60 34 -15 0 -47 -10 -70 -22z"/>
<path d="M1650 1174 c0 -11 6 -14 23 -10 12 3 16 3 10 0 -24 -11 -13 -24 14
-19 44 7 112 -47 113 -89 0 -11 3 -17 6 -13 12 12 -9 69 -34 92 -23 21 -99 55
-124 55 -4 0 -8 -7 -8 -16z"/>
<path d="M2110 1157 c0 -7 6 -19 13 -26 10 -11 8 -12 -9 -3 -12 7 -26 7 -35 1
-12 -7 -11 -9 2 -9 20 0 72 -47 83 -75 8 -20 8 -20 16 0 13 31 12 35 -10 35
-11 0 -19 3 -18 8 5 19 -13 70 -26 75 -9 4 -16 1 -16 -6z"/>
<path d="M1347 1134 c-33 -18 -31 -36 4 -41 13 -1 35 -5 49 -9 24 -5 24 -5 5
10 -18 14 -18 15 -2 16 9 0 26 -9 37 -20 32 -32 37 -23 5 10 -31 32 -25 41 9
13 l21 -18 -20 23 c-13 16 -27 22 -42 19 -13 -2 -23 0 -23 4 0 12 -11 11 -43
-7z"/>
<path d="M1486 1128 c8 -36 -2 -74 -21 -82 -15 -6 -114 16 -138 30 -8 5 -7 2
2 -9 7 -10 31 -20 52 -23 21 -4 36 -10 33 -15 -3 -5 9 -6 26 -3 36 8 42 -12 7
-25 -53 -20 -65 -83 -17 -89 14 -2 35 -8 47 -14 12 -6 28 -8 37 -5 8 3 29 0
46 -6 28 -11 33 -10 46 7 20 29 18 42 -17 77 -21 21 -27 35 -20 42 7 7 17 5
33 -7 78 -57 92 -66 102 -66 6 0 -2 9 -19 20 -16 11 -30 25 -30 32 0 7 -7 12
-16 10 -24 -3 -56 35 -41 50 7 7 12 23 12 35 l0 24 -26 -25 c-19 -17 -25 -31
-21 -45 3 -12 1 -24 -4 -27 -19 -11 -9 -53 18 -72 33 -24 23 -47 -16 -36 -14
4 -38 6 -53 5 -15 -1 -29 3 -33 9 -3 5 -17 10 -30 10 -26 0 -41 25 -22 37 36
23 58 31 79 27 l23 -5 -22 13 -22 13 19 30 c25 38 25 54 0 85 l-21 25 7 -27z"/>
<path d="M2059 1092 c7 -12 19 -22 27 -22 10 0 14 -6 11 -14 -3 -8 2 -25 12
-38 9 -13 23 -37 30 -55 17 -43 39 -50 47 -15 4 15 11 32 16 39 13 16 1 33
-22 33 -17 0 -18 -4 -9 -27 9 -27 8 -26 -26 9 -19 20 -35 43 -35 52 0 8 -14
25 -31 37 l-31 22 11 -21z"/>
<path d="M1630 1055 c-15 -9 -19 -14 -10 -15 8 0 26 -3 40 -6 20 -4 22 -3 10
5 -17 12 -1 15 25 5 13 -5 14 -8 3 -15 -10 -7 -9 -9 5 -9 10 0 29 -7 43 -16
30 -20 42 -12 25 19 -8 15 -28 28 -57 35 -54 15 -53 15 -84 -3z"/>
<path d="M1670 991 c0 -12 26 -21 58 -20 26 0 25 1 -8 14 -43 17 -50 17 -50 6z"/>
<path d="M2101 968 c-2 -35 8 -58 25 -58 18 0 18 16 0 23 -8 3 -16 18 -19 34
l-4 28 -2 -27z"/>
<path d="M1330 915 c-28 -29 -32 -37 -21 -48 8 -6 11 -7 8 -1 -3 6 2 18 11 27
27 25 44 48 40 53 -2 2 -20 -12 -38 -31z"/>
<path d="M1351 849 c-31 -12 -23 -19 31 -25 49 -5 83 -10 83 -13 0 -4 38 -12
68 -15 16 -2 32 -8 37 -15 4 -7 10 -12 14 -11 3 1 20 -2 37 -5 17 -4 33 -4 36
-1 10 10 -108 59 -150 62 -22 2 -46 9 -53 15 -8 6 -24 9 -36 6 -12 -4 -27 -2
-32 2 -6 5 -22 5 -35 0z"/>
<path d="M1358 793 c14 -25 85 -48 182 -59 62 -6 82 0 29 10 -13 2 -24 5 -24
6 0 1 -24 3 -54 5 -29 1 -56 8 -60 14 -4 6 -16 12 -28 14 -12 1 -29 9 -39 17
-16 14 -16 13 -6 -7z"/>
<path d="M1330 780 c0 -26 53 -91 86 -105 30 -12 75 -19 115 -16 20 1 109 60
109 72 0 4 -22 -3 -49 -16 -27 -14 -54 -25 -61 -25 -6 0 -8 -4 -5 -10 9 -15
-54 -1 -105 24 -25 11 -50 32 -56 44 -16 33 -34 50 -34 32z"/>
<path d="M1685 694 c-36 -42 -46 -65 -14 -31 45 45 62 67 53 66 -5 0 -22 -16
-39 -35z"/>
<path d="M1892 275 c-29 -13 -78 -29 -109 -35 -32 -5 -62 -15 -67 -20 -6 -6
-18 -10 -28 -10 -10 0 -18 -5 -18 -11 0 -7 8 -9 23 -4 12 4 46 11 76 16 76 14
216 70 199 80 -17 11 -15 12 -76 -16z"/>
<path d="M1255 160 c-3 -5 0 -11 7 -11 51 -6 76 -3 98 9 l25 14 -30 -7 c-39
-10 -46 -10 -72 -1 -12 4 -24 2 -28 -4z"/>
</g>
</svg>
